<svg width="70" height="70" viewBox="0 0 70 70" fill="#00FF73" xmlns="http://www.w3.org/2000/svg">
<rect width="70" height="70" rx="35" fill="#00FF73"/>
<g clip-path="url(#clip0_311_2487)">
<path d="M14.0625 39.4551L10.625 35.6672L7.1875 39.4551L5.8125 38.6975L10.625 33.3945L15.4375 38.6975L14.0625 39.4551Z" fill="#353535"/>
</g>
<g clip-path="url(#clip1_311_2487)">
<path d="M61.5625 39.4551L58.125 35.6672L54.6875 39.4551L53.3125 38.6975L58.125 33.3945L62.9375 38.6975L61.5625 39.4551Z" fill="#353535"/>
</g>
<path d="M23.9746 37.6416H25.4346C25.4053 38.1201 25.2734 38.5449 25.0391 38.916C24.8079 39.2871 24.484 39.5768 24.0674 39.7852C23.654 39.9935 23.1559 40.0977 22.5732 40.0977C22.1175 40.0977 21.709 40.0195 21.3477 39.8633C20.9863 39.7038 20.6771 39.4759 20.4199 39.1797C20.166 38.8835 19.9723 38.5254 19.8389 38.1055C19.7054 37.6855 19.6387 37.2152 19.6387 36.6943V36.2012C19.6387 35.6803 19.707 35.21 19.8438 34.79C19.9837 34.3669 20.1823 34.0072 20.4395 33.7109C20.6999 33.4147 21.0107 33.1868 21.3721 33.0273C21.7334 32.8678 22.137 32.7881 22.583 32.7881C23.1755 32.7881 23.6751 32.8955 24.082 33.1104C24.4922 33.3252 24.8096 33.6214 25.0342 33.999C25.262 34.3766 25.3988 34.8063 25.4443 35.2881H23.9795C23.9632 35.0016 23.9062 34.7591 23.8086 34.5605C23.7109 34.3587 23.5628 34.2074 23.3643 34.1064C23.1689 34.0023 22.9085 33.9502 22.583 33.9502C22.3389 33.9502 22.1257 33.9958 21.9434 34.0869C21.7611 34.1781 21.6081 34.3164 21.4844 34.502C21.3607 34.6875 21.2679 34.9219 21.2061 35.2051C21.1475 35.485 21.1182 35.8138 21.1182 36.1914V36.6943C21.1182 37.0622 21.1458 37.3861 21.2012 37.666C21.2565 37.9427 21.3411 38.1771 21.4551 38.3691C21.5723 38.5579 21.722 38.7012 21.9043 38.7988C22.0898 38.8932 22.3128 38.9404 22.5732 38.9404C22.8792 38.9404 23.1315 38.8916 23.3301 38.7939C23.5286 38.6963 23.68 38.5514 23.7842 38.3594C23.8916 38.1673 23.9551 37.9281 23.9746 37.6416ZM30.9668 38.8574V40H27.3877V38.8574H30.9668ZM27.8613 32.8906V40H26.3965V32.8906H27.8613ZM37.3242 36.2793V36.6162C37.3242 37.1566 37.251 37.6416 37.1045 38.0713C36.958 38.501 36.7513 38.8672 36.4844 39.1699C36.2174 39.4694 35.8984 39.6989 35.5273 39.8584C35.1595 40.0179 34.751 40.0977 34.3018 40.0977C33.8558 40.0977 33.4473 40.0179 33.0762 39.8584C32.7083 39.6989 32.3893 39.4694 32.1191 39.1699C31.849 38.8672 31.639 38.501 31.4893 38.0713C31.3428 37.6416 31.2695 37.1566 31.2695 36.6162V36.2793C31.2695 35.7357 31.3428 35.2507 31.4893 34.8242C31.6357 34.3945 31.8424 34.0283 32.1094 33.7256C32.3796 33.4229 32.6986 33.1917 33.0664 33.0322C33.4375 32.8727 33.846 32.793 34.292 32.793C34.7412 32.793 35.1497 32.8727 35.5176 33.0322C35.8887 33.1917 36.2077 33.4229 36.4746 33.7256C36.7448 34.0283 36.9531 34.3945 37.0996 34.8242C37.2493 35.2507 37.3242 35.7357 37.3242 36.2793ZM35.8447 36.6162V36.2695C35.8447 35.8919 35.8105 35.5599 35.7422 35.2734C35.6738 34.987 35.5729 34.7461 35.4395 34.5508C35.306 34.3555 35.1432 34.209 34.9512 34.1113C34.7591 34.0104 34.5394 33.96 34.292 33.96C34.0446 33.96 33.8249 34.0104 33.6328 34.1113C33.444 34.209 33.2829 34.3555 33.1494 34.5508C33.0192 34.7461 32.9199 34.987 32.8516 35.2734C32.7832 35.5599 32.749 35.8919 32.749 36.2695V36.6162C32.749 36.9906 32.7832 37.3226 32.8516 37.6123C32.9199 37.8988 33.0208 38.1413 33.1543 38.3398C33.2878 38.5352 33.4505 38.6833 33.6426 38.7842C33.8346 38.8851 34.0544 38.9355 34.3018 38.9355C34.5492 38.9355 34.7689 38.8851 34.9609 38.7842C35.153 38.6833 35.3141 38.5352 35.4443 38.3398C35.5745 38.1413 35.6738 37.8988 35.7422 37.6123C35.8105 37.3226 35.8447 36.9906 35.8447 36.6162ZM42.0801 38.1396C42.0801 38.0127 42.0605 37.8988 42.0215 37.7979C41.9857 37.6937 41.9173 37.5993 41.8164 37.5146C41.7155 37.4268 41.5739 37.3405 41.3916 37.2559C41.2093 37.1712 40.9733 37.0833 40.6836 36.9922C40.3613 36.888 40.0553 36.7708 39.7656 36.6406C39.4792 36.5104 39.2253 36.359 39.0039 36.1865C38.7858 36.0107 38.6133 35.8073 38.4863 35.5762C38.3626 35.3451 38.3008 35.0765 38.3008 34.7705C38.3008 34.4743 38.3659 34.2057 38.4961 33.9648C38.6263 33.7207 38.8086 33.5124 39.043 33.3398C39.2773 33.1641 39.554 33.029 39.873 32.9346C40.1953 32.8402 40.5485 32.793 40.9326 32.793C41.4567 32.793 41.9141 32.8874 42.3047 33.0762C42.6953 33.265 42.998 33.5238 43.2129 33.8525C43.431 34.1813 43.54 34.5573 43.54 34.9805H42.085C42.085 34.7721 42.041 34.5898 41.9531 34.4336C41.8685 34.2741 41.7383 34.1488 41.5625 34.0576C41.39 33.9665 41.1719 33.9209 40.9082 33.9209C40.6543 33.9209 40.4427 33.96 40.2734 34.0381C40.1042 34.113 39.9772 34.2155 39.8926 34.3457C39.8079 34.4727 39.7656 34.6159 39.7656 34.7754C39.7656 34.8958 39.7949 35.0049 39.8535 35.1025C39.9154 35.2002 40.0065 35.2913 40.127 35.376C40.2474 35.4606 40.3955 35.5404 40.5713 35.6152C40.7471 35.6901 40.9505 35.7633 41.1816 35.835C41.569 35.9521 41.9092 36.084 42.2021 36.2305C42.4984 36.377 42.7458 36.5413 42.9443 36.7236C43.1429 36.9059 43.2926 37.1126 43.3936 37.3438C43.4945 37.5749 43.5449 37.8369 43.5449 38.1299C43.5449 38.4391 43.4847 38.7158 43.3643 38.96C43.2438 39.2041 43.0697 39.4108 42.8418 39.5801C42.6139 39.7493 42.3421 39.8779 42.0264 39.9658C41.7106 40.0537 41.3574 40.0977 40.9668 40.0977C40.6152 40.0977 40.2686 40.0521 39.9268 39.9609C39.585 39.8665 39.2741 39.7249 38.9941 39.5361C38.7174 39.3473 38.4961 39.1064 38.3301 38.8135C38.1641 38.5205 38.0811 38.1738 38.0811 37.7734H39.5508C39.5508 37.9948 39.585 38.182 39.6533 38.335C39.7217 38.488 39.8177 38.6117 39.9414 38.7061C40.0684 38.8005 40.2181 38.8688 40.3906 38.9111C40.5664 38.9535 40.7585 38.9746 40.9668 38.9746C41.2207 38.9746 41.429 38.9388 41.5918 38.8672C41.7578 38.7956 41.8799 38.6963 41.958 38.5693C42.0394 38.4424 42.0801 38.2992 42.0801 38.1396ZM49.3115 38.8574V40H45.5273V38.8574H49.3115ZM46.0059 32.8906V40H44.541V32.8906H46.0059ZM48.8184 35.7861V36.8994H45.5273V35.7861H48.8184ZM49.3066 32.8906V34.0381H45.5273V32.8906H49.3066Z" fill="#353535"/>
<defs>
<clipPath id="clip0_311_2487">
<rect width="10" height="13.75" fill="#353535" transform="translate(3.75 41.5) rotate(-90)"/>
</clipPath>
<clipPath id="clip1_311_2487">
<rect width="10" height="13.75" fill="#353535" transform="translate(51.25 41.5) rotate(-90)"/>
</clipPath>
</defs>
</svg>
