<svg width="90" height="24" viewBox="0 0 90 24" fill="#00FF73" xmlns="http://www.w3.org/2000/svg">
<path d="M89.0607 13.0607C89.6464 12.4749 89.6464 11.5251 89.0607 10.9393L79.5147 1.3934C78.9289 0.807611 77.9792 0.807611 77.3934 1.3934C76.8076 1.97919 76.8076 2.92893 77.3934 3.51472L85.8787 12L77.3934 20.4853C76.8076 21.0711 76.8076 22.0208 77.3934 22.6066C77.9792 23.1924 78.9289 23.1924 79.5147 22.6066L89.0607 13.0607ZM48 13.5H88V10.5H48V13.5Z" fill="#00FF73"/>
<path d="M11.5049 5.20312V18H9.0791L3.63867 9.12305V18H1.22168V5.20312H3.63867L9.09668 14.0889V5.20312H11.5049ZM18.0615 18.1758C17.3408 18.1758 16.6934 18.0586 16.1191 17.8242C15.5449 17.5898 15.0557 17.2646 14.6514 16.8486C14.2529 16.4268 13.9453 15.9375 13.7285 15.3809C13.5176 14.8184 13.4121 14.2148 13.4121 13.5703V13.2188C13.4121 12.4863 13.5176 11.8213 13.7285 11.2236C13.9395 10.6201 14.2383 10.1016 14.625 9.66797C15.0117 9.23438 15.4746 8.90039 16.0137 8.66602C16.5527 8.43164 17.1475 8.31445 17.7979 8.31445C18.4717 8.31445 19.0664 8.42871 19.582 8.65723C20.0977 8.87988 20.5283 9.19629 20.874 9.60645C21.2197 10.0166 21.4805 10.5088 21.6562 11.083C21.832 11.6514 21.9199 12.2812 21.9199 12.9727V13.9482H14.4668V12.3486H19.6348V12.1729C19.623 11.8037 19.5527 11.4668 19.4238 11.1621C19.2949 10.8516 19.0957 10.6055 18.8262 10.4238C18.5566 10.2363 18.208 10.1426 17.7803 10.1426C17.4346 10.1426 17.1328 10.2188 16.875 10.3711C16.623 10.5176 16.4121 10.7285 16.2422 11.0039C16.0781 11.2734 15.9551 11.5957 15.873 11.9707C15.791 12.3457 15.75 12.7617 15.75 13.2188V13.5703C15.75 13.9688 15.8027 14.3379 15.9082 14.6777C16.0195 15.0176 16.1807 15.3135 16.3916 15.5654C16.6084 15.8115 16.8662 16.0049 17.165 16.1455C17.4697 16.2803 17.8154 16.3477 18.2021 16.3477C18.6885 16.3477 19.1279 16.2539 19.5205 16.0664C19.9189 15.873 20.2646 15.5889 20.5576 15.2139L21.7266 16.4268C21.5273 16.7197 21.2578 17.001 20.918 17.2705C20.584 17.54 20.1797 17.7598 19.7051 17.9297C19.2305 18.0938 18.6826 18.1758 18.0615 18.1758ZM25.2949 8.49023L26.9912 11.5137L28.7139 8.49023H31.2363L28.4414 13.1484L31.3506 18H28.8281L27.0088 14.8271L25.1807 18H22.6582L25.5586 13.1484L22.7812 8.49023H25.2949ZM37.0811 8.49023V10.1602H31.6318V8.49023H37.0811ZM33.0908 6.15234H35.4199V15.2578C35.4199 15.5391 35.458 15.7559 35.5342 15.9082C35.6104 16.0605 35.7246 16.1631 35.877 16.2158C36.0293 16.2686 36.2109 16.2949 36.4219 16.2949C36.5742 16.2949 36.7148 16.2861 36.8438 16.2686C36.9727 16.251 37.0811 16.2334 37.1689 16.2158L37.1777 17.9561C36.9844 18.0205 36.7646 18.0732 36.5186 18.1143C36.2783 18.1553 36.0059 18.1758 35.7012 18.1758C35.1797 18.1758 34.7227 18.0879 34.3301 17.9121C33.9375 17.7305 33.6328 17.4404 33.416 17.042C33.1992 16.6377 33.0908 16.1045 33.0908 15.4424V6.15234Z" fill="#00FF73"/>
</svg>
