<svg width="70" height="70" viewBox="0 0 70 70" fill="#00FF73" xmlns="http://www.w3.org/2000/svg">
<rect width="70" height="70" rx="35" fill="#00FF73"/>
<g clip-path="url(#clip0_311_1307)">
<path d="M7.1875 34.5449L10.625 38.3328L14.0625 34.5449L15.4375 35.3025L10.625 40.6055L5.8125 35.3025L7.1875 34.5449Z" fill="#353535"/>
</g>
<g clip-path="url(#clip1_311_1307)">
<path d="M54.6875 34.5449L58.125 38.3328L61.5625 34.5449L62.9375 35.3025L58.125 40.6055L53.3125 35.3025L54.6875 34.5449Z" fill="#353535"/>
</g>
<path d="M26.2024 37.3491V37.7703C26.2024 38.4457 26.1108 39.052 25.9277 39.5891C25.7446 40.1262 25.4862 40.584 25.1526 40.9624C24.8189 41.3368 24.4202 41.6236 23.9563 41.823C23.4965 42.0224 22.9858 42.1221 22.4243 42.1221C21.8669 42.1221 21.3562 42.0224 20.8923 41.823C20.4325 41.6236 20.0338 41.3368 19.696 40.9624C19.3583 40.584 19.0959 40.1262 18.9087 39.5891C18.7256 39.052 18.634 38.4457 18.634 37.7703V37.3491C18.634 36.6696 18.7256 36.0633 18.9087 35.5303C19.0918 34.9932 19.3502 34.5354 19.6838 34.157C20.0216 33.7786 20.4203 33.4897 20.8801 33.2903C21.344 33.0909 21.8547 32.9912 22.4121 32.9912C22.9736 32.9912 23.4843 33.0909 23.9441 33.2903C24.408 33.4897 24.8067 33.7786 25.1404 34.157C25.4781 34.5354 25.7385 34.9932 25.9216 35.5303C26.1088 36.0633 26.2024 36.6696 26.2024 37.3491ZM24.353 37.7703V37.3369C24.353 36.8649 24.3103 36.4499 24.2249 36.0918C24.1394 35.7337 24.0133 35.4326 23.8464 35.1885C23.6796 34.9443 23.4762 34.7612 23.2361 34.6392C22.996 34.513 22.7214 34.45 22.4121 34.45C22.1029 34.45 21.8282 34.513 21.5881 34.6392C21.3521 34.7612 21.1507 34.9443 20.9839 35.1885C20.8211 35.4326 20.697 35.7337 20.6116 36.0918C20.5261 36.4499 20.4834 36.8649 20.4834 37.3369V37.7703C20.4834 38.2382 20.5261 38.6532 20.6116 39.0154C20.697 39.3735 20.8232 39.6766 20.99 39.9248C21.1568 40.1689 21.3603 40.3541 21.6003 40.4802C21.8404 40.6064 22.1151 40.6694 22.4243 40.6694C22.7336 40.6694 23.0082 40.6064 23.2483 40.4802C23.4884 40.3541 23.6898 40.1689 23.8525 39.9248C24.0153 39.6766 24.1394 39.3735 24.2249 39.0154C24.3103 38.6532 24.353 38.2382 24.353 37.7703ZM30.9814 38.8323H28.717V37.4041H30.9814C31.3314 37.4041 31.6162 37.3471 31.8359 37.2332C32.0557 37.1152 32.2164 36.9524 32.3181 36.7449C32.4198 36.5374 32.4707 36.3034 32.4707 36.043C32.4707 35.7785 32.4198 35.5323 32.3181 35.3044C32.2164 35.0766 32.0557 34.8935 31.8359 34.7551C31.6162 34.6168 31.3314 34.5476 30.9814 34.5476H29.3518V42H27.5208V33.1133H30.9814C31.6772 33.1133 32.2734 33.2394 32.7698 33.4917C33.2703 33.7399 33.6528 34.0837 33.9172 34.5232C34.1817 34.9626 34.314 35.4652 34.314 36.0308C34.314 36.6045 34.1817 37.1009 33.9172 37.52C33.6528 37.9391 33.2703 38.2626 32.7698 38.4905C32.2734 38.7183 31.6772 38.8323 30.9814 38.8323ZM41.5405 40.5718V42H36.8103V40.5718H41.5405ZM37.4084 33.1133V42H35.5774V33.1133H37.4084ZM40.9241 36.7327V38.1243H36.8103V36.7327H40.9241ZM41.5344 33.1133V34.5476H36.8103V33.1133H41.5344ZM49.8413 33.1133V42H48.0103L44.4397 36.043V42H42.6086V33.1133H44.4397L48.0164 39.0764V33.1133H49.8413Z" fill="#353535"/>
<defs>
<clipPath id="clip0_311_1307">
<rect width="10" height="13.75" fill="#353535" transform="translate(17.5 32.5) rotate(90)"/>
</clipPath>
<clipPath id="clip1_311_1307">
<rect width="10" height="13.75" fill="#353535" transform="translate(65 32.5) rotate(90)"/>
</clipPath>
</defs>
</svg>
