<svg width="92" height="24" viewBox="0 0 92 24" fill="#00FF73" xmlns="http://www.w3.org/2000/svg">
<path d="M0.939339 13.0607C0.353554 12.4749 0.353554 11.5251 0.939339 10.9393L10.4853 1.3934C11.0711 0.807611 12.0208 0.807611 12.6066 1.3934C13.1924 1.97919 13.1924 2.92893 12.6066 3.51472L4.12132 12L12.6066 20.4853C13.1924 21.0711 13.1924 22.0208 12.6066 22.6066C12.0208 23.1924 11.0711 23.1924 10.4853 22.6066L0.939339 13.0607ZM42 13.5H2V10.5H42V13.5Z" fill="#00FF73"/>
<path d="M56.1436 13.333H52.8477V11.4346H56.1436C56.6826 11.4346 57.1191 11.3467 57.4531 11.1709C57.793 10.9893 58.042 10.7432 58.2002 10.4326C58.3584 10.1162 58.4375 9.75586 58.4375 9.35156C58.4375 8.95898 58.3584 8.59277 58.2002 8.25293C58.042 7.91309 57.793 7.6377 57.4531 7.42676C57.1191 7.21582 56.6826 7.11035 56.1436 7.11035H53.6387V18H51.2217V5.20312H56.1436C57.1396 5.20312 57.9893 5.38184 58.6924 5.73926C59.4014 6.09082 59.9404 6.58008 60.3096 7.20703C60.6846 7.82813 60.8721 8.53711 60.8721 9.33398C60.8721 10.1602 60.6846 10.8721 60.3096 11.4697C59.9404 12.0674 59.4014 12.5273 58.6924 12.8496C57.9893 13.1719 57.1396 13.333 56.1436 13.333ZM64.915 10.4326V18H62.5947V8.49023H64.792L64.915 10.4326ZM67.8066 8.42871L67.7715 10.5908C67.6426 10.5674 67.4961 10.5498 67.332 10.5381C67.1738 10.5264 67.0244 10.5205 66.8838 10.5205C66.5264 10.5205 66.2129 10.5703 65.9434 10.6699C65.6738 10.7637 65.4482 10.9014 65.2666 11.083C65.0908 11.2646 64.9561 11.4873 64.8623 11.751C64.7686 12.0088 64.7158 12.3018 64.7041 12.6299L64.2031 12.5684C64.2031 11.9648 64.2646 11.4053 64.3877 10.8896C64.5107 10.374 64.6895 9.92285 64.9238 9.53613C65.1582 9.14941 65.4512 8.85059 65.8027 8.63965C66.1602 8.42285 66.5703 8.31445 67.0332 8.31445C67.1621 8.31445 67.2998 8.32617 67.4463 8.34961C67.5986 8.36719 67.7188 8.39355 67.8066 8.42871ZM73.1768 18.1758C72.4561 18.1758 71.8086 18.0586 71.2344 17.8242C70.6602 17.5898 70.1709 17.2646 69.7666 16.8486C69.3682 16.4268 69.0605 15.9375 68.8438 15.3809C68.6328 14.8184 68.5273 14.2148 68.5273 13.5703V13.2188C68.5273 12.4863 68.6328 11.8213 68.8438 11.2236C69.0547 10.6201 69.3535 10.1016 69.7402 9.66797C70.127 9.23438 70.5898 8.90039 71.1289 8.66602C71.668 8.43164 72.2627 8.31445 72.9131 8.31445C73.5869 8.31445 74.1816 8.42871 74.6973 8.65723C75.2129 8.87988 75.6436 9.19629 75.9893 9.60645C76.335 10.0166 76.5957 10.5088 76.7715 11.083C76.9473 11.6514 77.0352 12.2812 77.0352 12.9727V13.9482H69.582V12.3486H74.75V12.1729C74.7383 11.8037 74.668 11.4668 74.5391 11.1621C74.4102 10.8516 74.2109 10.6055 73.9414 10.4238C73.6719 10.2363 73.3232 10.1426 72.8955 10.1426C72.5498 10.1426 72.248 10.2188 71.9902 10.3711C71.7383 10.5176 71.5273 10.7285 71.3574 11.0039C71.1934 11.2734 71.0703 11.5957 70.9883 11.9707C70.9062 12.3457 70.8652 12.7617 70.8652 13.2188V13.5703C70.8652 13.9688 70.918 14.3379 71.0234 14.6777C71.1348 15.0176 71.2959 15.3135 71.5068 15.5654C71.7236 15.8115 71.9814 16.0049 72.2803 16.1455C72.585 16.2803 72.9307 16.3477 73.3174 16.3477C73.8037 16.3477 74.2432 16.2539 74.6357 16.0664C75.0342 15.873 75.3799 15.5889 75.6729 15.2139L76.8418 16.4268C76.6426 16.7197 76.373 17.001 76.0332 17.2705C75.6992 17.54 75.2949 17.7598 74.8203 17.9297C74.3457 18.0938 73.7979 18.1758 73.1768 18.1758ZM81.623 16.2422L83.8379 8.49023H86.2637L83.0029 18H81.5264L81.623 16.2422ZM80.0059 8.49023L82.2471 16.2598L82.3262 18H80.8408L77.5713 8.49023H80.0059Z" fill="#00FF73"/>
</svg>
