<svg width="115" height="115" viewBox="0 0 115 115" fill="none" xmlns="http://www.w3.org/2000/svg">
<rect y="0.707107" width="80.2424" height="80.2424" rx="40.1212" transform="matrix(-0.707107 0.707107 0.707107 0.707107 56.9453 0.207107)" fill="#191D25" stroke="#2F4059"/>
<g clip-path="url(#clip0_237_4)">
<path d="M69.9215 45.7384C67.6265 44.7034 65.1665 43.9384 62.594 43.5034C62.5711 43.4991 62.5474 43.5019 62.5262 43.5116C62.5049 43.5212 62.4872 43.5373 62.4755 43.5574C62.1605 44.1109 61.8095 44.8324 61.5635 45.4024C58.8352 44.9948 56.0614 44.9948 53.333 45.4024C53.059 44.7707 52.7501 44.1548 52.4075 43.5574C52.3959 43.537 52.3784 43.5206 52.3572 43.5104C52.336 43.5003 52.3122 43.4968 52.289 43.5004C49.718 43.9354 47.258 44.7004 44.9615 45.7369C44.9418 45.7452 44.925 45.7594 44.9135 45.7774C40.2455 52.6399 38.966 59.3329 39.5945 65.9419C39.5963 65.9581 39.6013 65.9738 39.6093 65.988C39.6173 66.0022 39.6281 66.0146 39.641 66.0244C42.3656 68.0081 45.4045 69.5192 48.6305 70.4944C48.653 70.5014 48.6771 70.5014 48.6996 70.4944C48.722 70.4874 48.7419 70.4739 48.7565 70.4554C49.4495 69.5254 50.0675 68.5429 50.5955 67.5109C50.627 67.4509 50.597 67.3789 50.534 67.3549C49.565 66.99 48.6262 66.5497 47.726 66.0379C47.7099 66.0287 47.6962 66.0156 47.6864 65.9998C47.6765 65.984 47.6707 65.966 47.6695 65.9474C47.6683 65.9288 47.6718 65.9103 47.6796 65.8933C47.6873 65.8764 47.6992 65.8617 47.714 65.8504C47.903 65.7109 48.092 65.5654 48.272 65.4199C48.2882 65.4069 48.3078 65.3985 48.3284 65.3959C48.3491 65.3932 48.3701 65.3964 48.389 65.4049C54.2795 68.0509 60.659 68.0509 66.4805 65.4049C66.4996 65.3959 66.5208 65.3923 66.5417 65.3947C66.5627 65.3971 66.5825 65.4053 66.599 65.4184C66.779 65.5654 66.9665 65.7109 67.157 65.8504C67.172 65.8614 67.1841 65.876 67.1921 65.8927C67.2001 65.9095 67.2038 65.928 67.203 65.9466C67.2021 65.9652 67.1966 65.9833 67.187 65.9992C67.1774 66.0151 67.164 66.0284 67.148 66.0379C66.251 66.5539 65.318 66.9904 64.3385 67.3534C64.3235 67.3589 64.3098 67.3675 64.2983 67.3787C64.2869 67.3899 64.2779 67.4034 64.2721 67.4183C64.2663 67.4332 64.2637 67.4492 64.2646 67.4651C64.2654 67.4811 64.2697 67.4967 64.277 67.5109C64.817 68.5414 65.435 69.5224 66.1145 70.4539C66.1287 70.4731 66.1483 70.4874 66.1709 70.4949C66.1934 70.5024 66.2178 70.5028 66.2405 70.4959C69.4721 69.5234 72.5159 68.0116 75.2435 66.0244C75.2568 66.0151 75.268 66.0031 75.2763 65.9891C75.2846 65.9752 75.2898 65.9596 75.2915 65.9434C76.0415 58.3024 74.0345 51.6634 69.968 45.7804C69.9581 45.7613 69.9416 45.7464 69.9215 45.7384ZM51.476 61.9174C49.703 61.9174 48.2405 60.3139 48.2405 58.3474C48.2405 56.3794 49.6745 54.7774 51.476 54.7774C53.291 54.7774 54.74 56.3929 54.7115 58.3474C54.7115 60.3154 53.2775 61.9174 51.476 61.9174ZM63.4385 61.9174C61.664 61.9174 60.203 60.3139 60.203 58.3474C60.203 56.3794 61.6355 54.7774 63.4385 54.7774C65.2535 54.7774 66.7025 56.3929 66.674 58.3474C66.674 60.3154 65.255 61.9174 63.4385 61.9174Z" fill="#95BFFE"/>
</g>
<defs>
<clipPath id="clip0_237_4">
<rect width="36" height="36" fill="white" transform="translate(39.4453 39)"/>
</clipPath>
</defs>
</svg>
