<svg width="15" height="15" viewBox="0 0 15 15" fill="none" xmlns="http://www.w3.org/2000/svg">
<path d="M9.47253 3.6381L13.3814 10.1487C13.9432 11.0838 13.6673 12.314 12.7649 12.8962C12.462 13.0923 12.1089 13.1968 11.7481 13.1972H3.92969C2.86744 13.1972 2.00586 12.3047 2.00586 11.2028C2.00586 10.83 2.10678 10.4654 2.29636 10.1487L6.20586 3.6381C6.76703 2.70302 7.95353 2.4166 8.85594 2.99877C9.10561 3.15977 9.31678 3.37852 9.47253 3.6381ZM7.83919 10.8638C7.9939 10.8638 8.14228 10.8024 8.25167 10.693C8.36107 10.5836 8.42253 10.4352 8.42253 10.2805C8.42253 10.1258 8.36107 9.97743 8.25167 9.86804C8.14228 9.75864 7.9939 9.69718 7.83919 9.69718C7.68448 9.69718 7.53611 9.75864 7.42671 9.86804C7.31732 9.97743 7.25586 10.1258 7.25586 10.2805C7.25586 10.4352 7.31732 10.5836 7.42671 10.693C7.53611 10.8024 7.68448 10.8638 7.83919 10.8638V10.8638ZM7.83919 5.61385C7.68448 5.61385 7.53611 5.67531 7.42671 5.7847C7.31732 5.8941 7.25586 6.04247 7.25586 6.19718V8.53052C7.25586 8.68523 7.31732 8.8336 7.42671 8.94299C7.53611 9.05239 7.68448 9.11385 7.83919 9.11385C7.9939 9.11385 8.14228 9.05239 8.25167 8.94299C8.36107 8.8336 8.42253 8.68523 8.42253 8.53052V6.19718C8.42253 6.04247 8.36107 5.8941 8.25167 5.7847C8.14228 5.67531 7.9939 5.61385 7.83919 5.61385Z" fill="white"/>
</svg>
