<svg width="14" height="14" viewBox="0 0 14 14" fill="none" xmlns="http://www.w3.org/2000/svg">
<path d="M2.91667 12.8337H11.0833C11.7267 12.8337 12.25 12.3104 12.25 11.667V3.50033C12.25 2.85691 11.7267 2.33366 11.0833 2.33366H9.91667V1.16699H8.75V2.33366H5.25V1.16699H4.08333V2.33366H2.91667C2.27325 2.33366 1.75 2.85691 1.75 3.50033V11.667C1.75 12.3104 2.27325 12.8337 2.91667 12.8337ZM6.41667 10.7418L4.25425 8.57941L5.07908 7.75458L6.41667 9.09216L8.92092 6.58791L9.74575 7.41274L6.41667 10.7418ZM2.91667 4.08366H11.0833V5.25033H2.91667V4.08366Z" fill="white"/>
</svg>
