<svg width="22" height="22" viewBox="0 0 22 22" fill="#00FF73" xmlns="http://www.w3.org/2000/svg">
<g clip-path="url(#clip0_249_1645)">
<path d="M18.6244 4.11658C17.2219 3.48408 15.7185 3.01658 14.1464 2.75075C14.1324 2.74806 14.1179 2.7498 14.105 2.75571C14.092 2.76162 14.0812 2.77142 14.074 2.78375C13.8815 3.122 13.667 3.56292 13.5167 3.91125C11.8494 3.66213 10.1543 3.66213 8.48694 3.91125C8.3195 3.52521 8.13068 3.14879 7.92136 2.78375C7.91426 2.77127 7.90353 2.76125 7.89059 2.75502C7.87765 2.7488 7.86312 2.74667 7.84894 2.74892C6.27777 3.01475 4.77444 3.48225 3.37102 4.11567C3.35895 4.12073 3.34871 4.12937 3.34169 4.14042C0.489024 8.33417 -0.292893 12.4243 0.0911906 16.4632C0.0922593 16.4731 0.0953298 16.4826 0.100215 16.4913C0.1051 16.5 0.111698 16.5075 0.119607 16.5136C1.78463 17.7258 3.64175 18.6493 5.61319 19.2453C5.62693 19.2495 5.64163 19.2495 5.65537 19.2452C5.66911 19.241 5.68124 19.2327 5.69019 19.2214C6.11369 18.6531 6.49136 18.0527 6.81402 17.422C6.83327 17.3853 6.81494 17.3413 6.77644 17.3267C6.18428 17.1037 5.61052 16.8346 5.06044 16.5218C5.05056 16.5162 5.04223 16.5082 5.0362 16.4985C5.03017 16.4889 5.02664 16.4779 5.02591 16.4665C5.02519 16.4552 5.02729 16.4438 5.03204 16.4335C5.03678 16.4231 5.04402 16.4141 5.05311 16.4073C5.16861 16.322 5.28411 16.2331 5.39411 16.1442C5.40401 16.1362 5.41594 16.1311 5.42856 16.1295C5.44118 16.1278 5.45401 16.1298 5.46561 16.135C9.06536 17.752 12.9639 17.752 16.5215 16.135C16.5332 16.1295 16.5461 16.1273 16.5589 16.1287C16.5717 16.1302 16.5839 16.1352 16.5939 16.1432C16.7039 16.2331 16.8185 16.322 16.9349 16.4073C16.9441 16.414 16.9515 16.4228 16.9564 16.4331C16.9613 16.4434 16.9635 16.4547 16.963 16.466C16.9625 16.4774 16.9591 16.4884 16.9532 16.4982C16.9474 16.5079 16.9392 16.516 16.9294 16.5218C16.3813 16.8372 15.8111 17.1039 15.2125 17.3258C15.2033 17.3291 15.195 17.3343 15.188 17.3412C15.181 17.348 15.1755 17.3563 15.1719 17.3654C15.1684 17.3745 15.1668 17.3842 15.1673 17.394C15.1678 17.4038 15.1704 17.4133 15.1749 17.422C15.5049 18.0518 15.8826 18.6512 16.2979 19.2205C16.3065 19.2322 16.3185 19.2409 16.3323 19.2455C16.3461 19.2501 16.3609 19.2503 16.3749 19.2462C18.3497 18.6518 20.2098 17.728 21.8767 16.5136C21.8848 16.5079 21.8916 16.5005 21.8967 16.492C21.9018 16.4835 21.9049 16.4739 21.906 16.4641C22.3644 11.7946 21.1379 7.73742 18.6528 4.14225C18.6467 4.13057 18.6366 4.12146 18.6244 4.11658ZM7.35211 14.0037C6.26861 14.0037 5.37486 13.0238 5.37486 11.8221C5.37486 10.6194 6.25119 9.64042 7.35211 9.64042C8.46127 9.64042 9.34677 10.6277 9.32936 11.8221C9.32936 13.0248 8.45302 14.0037 7.35211 14.0037ZM14.6625 14.0037C13.5781 14.0037 12.6853 13.0238 12.6853 11.8221C12.6853 10.6194 13.5607 9.64042 14.6625 9.64042C15.7717 9.64042 16.6572 10.6277 16.6398 11.8221C16.6398 13.0248 15.7726 14.0037 14.6625 14.0037Z" fill="#00FF73"/>
</g>
<defs>
<clipPath id="clip0_249_1645">
<rect width="22" height="22" fill="white"/>
</clipPath>
</defs>
</svg>
