<svg width="11" height="11" viewBox="0 0 11 11" fill="none" xmlns="http://www.w3.org/2000/svg">
<path d="M5.50044 3.73256C5.26828 3.73256 5.03839 3.77829 4.82391 3.86713C4.60942 3.95597 4.41453 4.08619 4.25037 4.25035C4.08621 4.41451 3.95599 4.6094 3.86715 4.82389C3.77831 5.03837 3.73258 5.26826 3.73258 5.50042C3.73258 5.73257 3.77831 5.96246 3.86715 6.17695C3.95599 6.39143 4.08621 6.58632 4.25037 6.75048C4.41453 6.91464 4.60942 7.04486 4.82391 7.1337C5.03839 7.22255 5.26828 7.26827 5.50044 7.26827C5.9693 7.26827 6.41896 7.08202 6.7505 6.75048C7.08204 6.41894 7.2683 5.96928 7.2683 5.50042C7.2683 5.03155 7.08204 4.58189 6.7505 4.25035C6.41896 3.91882 5.9693 3.73256 5.50044 3.73256V3.73256ZM4.32187 5.50042C4.32187 5.34564 4.35235 5.19239 4.41158 5.0494C4.47081 4.90641 4.55762 4.77648 4.66706 4.66704C4.7765 4.5576 4.90643 4.47079 5.04942 4.41156C5.19241 4.35233 5.34567 4.32185 5.50044 4.32185C5.65521 4.32185 5.80847 4.35233 5.95146 4.41156C6.09445 4.47079 6.22437 4.5576 6.33381 4.66704C6.44325 4.77648 6.53007 4.90641 6.5893 5.0494C6.64852 5.19239 6.67901 5.34564 6.67901 5.50042C6.67901 5.81299 6.55484 6.11277 6.33381 6.33379C6.11279 6.55482 5.81301 6.67899 5.50044 6.67899C5.18786 6.67899 4.88809 6.55482 4.66706 6.33379C4.44604 6.11277 4.32187 5.81299 4.32187 5.50042V5.50042ZM8.52937 8.79845L7.85051 8.50027C7.75389 8.45829 7.64879 8.43949 7.54361 8.44535C7.43843 8.45122 7.33608 8.48159 7.24472 8.53406C7.06126 8.64013 6.94419 8.82752 6.92101 9.03849L6.8393 9.77706C6.83106 9.85128 6.80012 9.92114 6.75069 9.97711C6.70125 10.0331 6.63575 10.0724 6.56312 10.0898C5.86419 10.2564 5.1359 10.2564 4.43697 10.0898C4.36441 10.0724 4.29899 10.033 4.24964 9.97702C4.20028 9.92105 4.16939 9.85122 4.16119 9.77706L4.07947 9.03967C4.06774 8.93589 4.03185 8.83631 3.97467 8.74891C3.9175 8.66152 3.84064 8.58874 3.75026 8.53642C3.65997 8.4842 3.55867 8.45394 3.45454 8.44807C3.3504 8.4422 3.24634 8.46089 3.15076 8.50263L2.4719 8.80081C2.40328 8.83096 2.32697 8.83902 2.25356 8.82389C2.18015 8.80876 2.11326 8.77117 2.06215 8.71634C1.57354 8.19274 1.20995 7.56522 0.998686 6.88092C0.976473 6.80899 0.977168 6.73194 1.00068 6.66043C1.02419 6.58892 1.06934 6.52649 1.1299 6.48177L1.72979 6.03863C1.81425 5.97658 1.88291 5.89553 1.93024 5.80204C1.97757 5.70854 2.00223 5.60521 2.00223 5.50042C2.00223 5.39562 1.97757 5.2923 1.93024 5.1988C1.88291 5.1053 1.81425 5.02425 1.72979 4.9622L1.1299 4.52024C1.06927 4.4755 1.02406 4.413 1.00054 4.34141C0.977033 4.26981 0.976383 4.19268 0.998686 4.1207C1.21038 3.437 1.57424 2.81016 2.06294 2.28724C2.11409 2.23248 2.181 2.19497 2.25441 2.17991C2.32782 2.16484 2.4041 2.17297 2.47269 2.20317L3.1484 2.50056C3.24455 2.54194 3.34904 2.56024 3.45353 2.55399C3.55801 2.54775 3.65959 2.51713 3.75012 2.46459C3.84065 2.41205 3.91762 2.33905 3.97488 2.25143C4.03214 2.16381 4.0681 2.064 4.07987 1.95999L4.16237 1.2222C4.17067 1.14715 4.2022 1.07656 4.25256 1.02029C4.30292 0.964017 4.36958 0.92487 4.44326 0.908311C4.78937 0.831311 5.14254 0.790454 5.50554 0.786133C5.8599 0.790061 6.21269 0.831311 6.5584 0.908311C6.63216 0.924839 6.6989 0.964027 6.74927 1.02039C6.79964 1.07675 6.83112 1.14745 6.8393 1.2226L6.9214 1.96038C6.93911 2.124 7.01656 2.27533 7.13893 2.38537C7.2613 2.49542 7.41997 2.55644 7.58455 2.55674C7.67608 2.55674 7.76683 2.53749 7.85169 2.50017L8.5274 2.20278C8.59599 2.17258 8.67227 2.16445 8.74568 2.17951C8.81909 2.19458 8.886 2.23208 8.93715 2.28685C9.42573 2.80978 9.78945 3.43663 10.001 4.12031C10.0233 4.19219 10.0226 4.26922 9.99919 4.34072C9.97576 4.41223 9.93068 4.47469 9.87019 4.51945L9.27108 4.9622C9.10019 5.08792 8.99687 5.28788 8.99687 5.50042C8.99687 5.71256 9.10019 5.91252 9.27147 6.03863L9.87097 6.48099C9.99512 6.57292 10.0478 6.7332 10.0022 6.88052C9.79065 7.56412 9.42707 8.19094 8.93872 8.71399C8.88762 8.76882 8.82072 8.8064 8.74731 8.82153C8.6739 8.83666 8.5976 8.8286 8.52897 8.79845H8.52937ZM6.38947 8.72067C6.48322 8.42708 6.68275 8.17883 6.9493 8.02413C7.12077 7.92533 7.31303 7.86814 7.51063 7.85715C7.70822 7.84616 7.90564 7.88169 8.08701 7.96088L8.61501 8.19267C8.95416 7.79998 9.21667 7.34718 9.38894 6.85774L8.92183 6.5132V6.51281C8.7628 6.39605 8.63342 6.24357 8.5441 6.06766C8.45477 5.89174 8.40801 5.69731 8.40758 5.50002C8.40758 5.09656 8.60283 4.72217 8.92105 4.48802L8.92183 4.48763L9.38815 4.1431C9.21577 3.65375 8.95312 3.20107 8.61383 2.80856L8.09015 3.03877L8.08937 3.03917C7.92987 3.10988 7.75819 3.14602 7.58415 3.14602C7.27466 3.14556 6.97621 3.03102 6.74587 2.82431C6.51553 2.6176 6.36948 2.33323 6.33565 2.0256V2.02481L6.27162 1.45124C6.01889 1.40417 5.7626 1.3788 5.50554 1.37542C5.24523 1.37869 4.98567 1.40406 4.72965 1.45124L4.66562 2.0252C4.64359 2.22107 4.57593 2.40903 4.46805 2.57399C4.36018 2.73895 4.21511 2.8763 4.0445 2.97499C3.87389 3.07369 3.68251 3.13098 3.48573 3.14226C3.28896 3.15354 3.09228 3.1185 2.91151 3.03995L2.38665 2.80895C2.04735 3.20146 1.7847 3.65413 1.61233 4.14349L2.07983 4.48802C2.23853 4.60489 2.36753 4.75742 2.45644 4.93331C2.54535 5.1092 2.59167 5.30353 2.59167 5.50061C2.59167 5.6977 2.54535 5.89202 2.45644 6.06791C2.36753 6.2438 2.23853 6.39633 2.07983 6.5132L1.61233 6.85813C1.78437 7.34826 2.0469 7.80175 2.38626 8.19502L2.91465 7.96324C3.09485 7.88436 3.29107 7.84895 3.48747 7.85987C3.68387 7.87079 3.87495 7.92773 4.04529 8.02609C4.21557 8.12446 4.36039 8.26139 4.46812 8.4259C4.57586 8.5904 4.6435 8.77788 4.66562 8.97327V8.97524L4.72926 9.55038C5.23879 9.65056 5.76247 9.65056 6.27201 9.55038L6.33565 8.97406C6.34508 8.88763 6.36315 8.80238 6.38987 8.72067H6.38947Z" fill="white"/>
</svg>
