<svg width="17" height="17" viewBox="0 0 17 17" fill="none" xmlns="http://www.w3.org/2000/svg">
<path d="M13.4492 1.4248L15.5742 3.5498L13.9542 5.17047L11.8292 3.04547L13.4492 1.4248ZM5.66602 11.333H7.79102L12.9526 6.17135L10.8276 4.04635L5.66602 9.20797V11.333Z" fill="#353535"/>
<path d="M13.4583 13.4583H5.77858C5.76017 13.4583 5.74104 13.4654 5.72263 13.4654C5.69925 13.4654 5.67587 13.459 5.65179 13.4583H3.54167V3.54167H8.39162L9.80829 2.125H3.54167C2.76037 2.125 2.125 2.75967 2.125 3.54167V13.4583C2.125 14.2403 2.76037 14.875 3.54167 14.875H13.4583C13.8341 14.875 14.1944 14.7257 14.4601 14.4601C14.7257 14.1944 14.875 13.8341 14.875 13.4583V7.3185L13.4583 8.73517V13.4583Z" fill="#353535"/>
</svg>
