<svg width="22" height="22" viewBox="0 0 22 22" fill="#00FF73" xmlns="http://www.w3.org/2000/svg">
<path d="M12.4094 11.002C12.4094 14.4188 9.63188 17.1895 6.204 17.1895C5.39036 17.1905 4.58448 17.0314 3.83236 16.721C3.08024 16.4106 2.39662 15.9552 1.82053 15.3806C1.24443 14.806 0.787145 14.1236 0.474779 13.3723C0.162413 12.6211 0.00108268 11.8156 0 11.002C0 7.58371 2.7775 4.81446 6.204 4.81446C7.01775 4.8132 7.82379 4.97225 8.57606 5.28253C9.32834 5.59281 10.0121 6.04825 10.5884 6.62283C11.1646 7.19741 11.622 7.87988 11.9345 8.63126C12.2469 9.38264 12.4083 10.1882 12.4094 11.002ZM19.2156 11.002C19.2156 14.2195 17.8269 16.8265 16.1136 16.8265C14.4004 16.8265 13.0116 14.2181 13.0116 11.002C13.0116 7.78446 14.4004 5.17746 16.1136 5.17746C17.8269 5.17746 19.2156 7.78583 19.2156 11.002ZM22 11.002C22 13.884 21.5119 16.2201 20.9083 16.2201C20.306 16.2201 19.8179 13.8826 19.8179 11.002C19.8179 8.11996 20.306 5.78384 20.9096 5.78384C21.5119 5.78384 22 8.11996 22 11.002Z" fill="#00FF73"/>
</svg>
