<svg width="85" height="86" viewBox="0 0 85 86" fill="none" xmlns="http://www.w3.org/2000/svg">
<rect x="42.5547" y="1.7032" width="59" height="59" rx="29.5" transform="rotate(45 42.5547 1.7032)" fill="#191D25" stroke="#00FF73"/>
<path d="M44.7089 44.63C44.7089 49.8357 40.4772 54.0569 35.2547 54.0569C34.0151 54.0585 32.7873 53.816 31.6415 53.3432C30.4956 52.8703 29.4541 52.1764 28.5764 51.301C27.6987 50.4257 27.002 49.386 26.5261 48.2414C26.0502 47.0968 25.8044 45.8696 25.8027 44.63C25.8027 39.4222 30.0344 35.2031 35.2547 35.2031C36.4945 35.2012 37.7225 35.4435 38.8687 35.9163C40.0148 36.389 41.0566 37.0829 41.9345 37.9583C42.8124 38.8336 43.5093 39.8734 43.9853 41.0182C44.4613 42.1629 44.7072 43.3902 44.7089 44.63V44.63ZM55.0784 44.63C55.0784 49.532 52.9626 53.5038 50.3524 53.5038C47.7422 53.5038 45.6264 49.5299 45.6264 44.63C45.6264 39.728 47.7422 35.7562 50.3524 35.7562C52.9626 35.7562 55.0784 39.7301 55.0784 44.63ZM59.3205 44.63C59.3205 49.0208 58.5768 52.58 57.6572 52.58C56.7396 52.58 55.996 49.0187 55.996 44.63C55.996 40.2392 56.7396 36.68 57.6593 36.68C58.5768 36.68 59.3205 40.2392 59.3205 44.63Z" fill="#00FF73"/>
</svg>
