<svg width="17" height="17" viewBox="0 0 17 17" fill="none" xmlns="http://www.w3.org/2000/svg">
<path d="M8.50059 0.1875C10.7054 0.1875 12.8198 1.06334 14.3788 2.62235C15.9378 4.18136 16.8137 6.29582 16.8137 8.50059C16.8137 10.7054 15.9378 12.8198 14.3788 14.3788C12.8198 15.9378 10.7054 16.8137 8.50059 16.8137C6.29582 16.8137 4.18136 15.9378 2.62235 14.3788C1.06334 12.8198 0.1875 10.7054 0.1875 8.50059C0.1875 6.29582 1.06334 4.18136 2.62235 2.62235C4.18136 1.06334 6.29582 0.1875 8.50059 0.1875V0.1875ZM9.74747 5.29137C10.365 5.29137 10.8661 4.86269 10.8661 4.22737C10.8661 3.59206 10.3638 3.16338 9.74747 3.16338C9.12997 3.16338 8.63122 3.59206 8.63122 4.22737C8.63122 4.86269 9.12997 5.29137 9.74747 5.29137ZM9.96478 11.9734C9.96478 11.8464 10.0087 11.5162 9.98378 11.3286L9.00766 12.452C8.80578 12.6646 8.55284 12.8118 8.43409 12.7726C8.38022 12.7528 8.33519 12.7144 8.30711 12.6643C8.27903 12.6143 8.26974 12.5558 8.28091 12.4995L9.90778 7.36C10.0408 6.70806 9.67503 6.11313 8.89959 6.03713C8.08141 6.03713 6.87728 6.86719 6.14459 7.9205C6.14459 8.04638 6.12084 8.35987 6.14578 8.5475L7.12072 7.42294C7.32259 7.21275 7.55772 7.06431 7.67647 7.10469C7.73497 7.12569 7.78292 7.16879 7.81 7.22473C7.83709 7.28068 7.84116 7.34502 7.82134 7.40394L6.20872 12.5185C6.02228 13.117 6.37497 13.7036 7.22997 13.8366C8.48872 13.8366 9.23209 13.0268 9.96597 11.9734H9.96478Z" fill="white"/>
</svg>
