<svg width="32" height="32" viewBox="0 0 32 32" fill="none" xmlns="http://www.w3.org/2000/svg">
<path d="M19.7288 6.15048L28.6634 21.0318C29.9474 23.1691 29.3168 25.9811 27.2541 27.3118C26.5618 27.7601 25.7549 27.999 24.9301 27.9998H7.05944C4.63144 27.9998 2.66211 25.9598 2.66211 23.4411C2.66211 22.5891 2.89278 21.7558 3.32611 21.0318L12.2621 6.15048C13.5448 4.01314 16.2568 3.35848 18.3194 4.68914C18.8901 5.05714 19.3728 5.55714 19.7288 6.15048ZM15.9954 22.6665C16.3491 22.6665 16.6882 22.526 16.9383 22.276C17.1883 22.0259 17.3288 21.6868 17.3288 21.3331C17.3288 20.9795 17.1883 20.6404 16.9383 20.3903C16.6882 20.1403 16.3491 19.9998 15.9954 19.9998C15.6418 19.9998 15.3027 20.1403 15.0526 20.3903C14.8026 20.6404 14.6621 20.9795 14.6621 21.3331C14.6621 21.6868 14.8026 22.0259 15.0526 22.276C15.3027 22.526 15.6418 22.6665 15.9954 22.6665ZM15.9954 10.6665C15.6418 10.6665 15.3027 10.807 15.0526 11.057C14.8026 11.3071 14.6621 11.6462 14.6621 11.9998V17.3331C14.6621 17.6868 14.8026 18.0259 15.0526 18.276C15.3027 18.526 15.6418 18.6665 15.9954 18.6665C16.3491 18.6665 16.6882 18.526 16.9383 18.276C17.1883 18.0259 17.3288 17.6868 17.3288 17.3331V11.9998C17.3288 11.6462 17.1883 11.3071 16.9383 11.057C16.6882 10.807 16.3491 10.6665 15.9954 10.6665Z" fill="#FF6C6C"/>
</svg>
