<svg width="18" height="24" viewBox="0 0 18 24" fill="none" xmlns="http://www.w3.org/2000/svg">
<path fill-rule="evenodd" clip-rule="evenodd" d="M0.944462 0.0868504C0.50627 0.238358 0.151552 0.609877 0.0363297 1.03803C0.00655105 1.14872 -0.00550139 5.07195 0.00233017 12.112L0.0144294 23.0147L0.120226 23.2128C0.286189 23.5235 0.490841 23.7272 0.779671 23.8691L1.04613 24H8.99493H16.9437L17.2102 23.8691C17.499 23.7272 17.7037 23.5235 17.8696 23.2128L17.9754 23.0147L17.9877 15.5425L18 8.07038H14.2353C9.96876 8.07038 10.2443 8.09516 10.0384 7.69333L9.93284 7.48744V3.74372V0L5.55983 0.00154839C1.48578 0.00295601 1.17026 0.00877419 0.944462 0.0868504ZM11.3397 3.51906V6.66276H14.4933H17.6469L14.5052 3.51906C12.7772 1.79003 11.3581 0.375367 11.3516 0.375367C11.3451 0.375367 11.3397 1.79003 11.3397 3.51906ZM6.88327 9.17429C7.6268 9.24584 8.50304 9.65931 9.09646 10.2187C9.8285 10.9087 10.3043 11.8297 10.3792 12.7013C10.3942 12.8769 10.417 13.0891 10.4297 13.173L10.453 13.3255L12.268 13.3257C13.9965 13.3258 14.0904 13.3303 14.2359 13.4191C14.6773 13.6884 14.6872 14.3338 14.254 14.6034C14.0845 14.7088 14.0672 14.7098 12.1102 14.7233L10.1373 14.7369L10.0407 14.9357C9.98766 15.0451 9.82559 15.3185 9.68059 15.5434C9.53563 15.7683 9.41699 15.963 9.41699 15.9761C9.41699 15.9893 10.4668 16.0001 11.75 16.0002C13.9954 16.0003 14.0889 16.0038 14.2359 16.0936C14.6773 16.3628 14.6872 17.0083 14.254 17.2778L14.0831 17.3842L11.2694 17.398L8.45563 17.4119L8.04576 18.0314L7.63594 18.651L9.2416 18.6745C10.7394 18.6964 10.858 18.7042 11.0061 18.7918C11.4659 19.0634 11.4343 19.7494 10.9513 19.9833C10.7531 20.0793 10.6871 20.0821 8.61348 20.0821C6.21726 20.0821 6.14448 20.0739 5.83267 19.771C5.61653 19.561 2.74295 15.2329 2.5813 14.8739C2.34748 14.3547 2.28033 14.0388 2.25702 13.349C2.237 12.7558 2.24633 12.6475 2.35344 12.2327C2.73756 10.7447 3.91394 9.57842 5.37361 9.23857C5.65695 9.1726 6.25693 9.11179 6.43912 9.13056C6.5165 9.13853 6.71637 9.15824 6.88327 9.17429ZM5.99361 10.5607C4.92608 10.681 4.03432 11.4598 3.71819 12.5478C3.60865 12.9247 3.63964 13.709 3.77916 14.0918C3.86624 14.3307 6.25431 18.06 6.32188 18.0626C6.37778 18.0648 8.74207 14.4023 8.8406 14.1609C8.99019 13.7945 9.05411 13.2503 8.99268 12.8657C8.75435 11.3729 7.4795 10.3931 5.99361 10.5607Z" fill="#00FF73"/>
</svg>
