<svg width="33" height="35" viewBox="0 0 33 35" fill="none" xmlns="http://www.w3.org/2000/svg">
<path d="M16.4989 11.2321C15.6758 11.2321 14.8607 11.3942 14.1003 11.7092C13.3398 12.0242 12.6489 12.4859 12.0668 13.0679C11.4848 13.6499 11.0231 14.3409 10.7081 15.1013C10.3931 15.8618 10.231 16.6768 10.231 17.4999C10.231 18.323 10.3931 19.1381 10.7081 19.8985C11.0231 20.659 11.4848 21.3499 12.0668 21.932C12.6489 22.514 13.3398 22.9757 14.1003 23.2907C14.8607 23.6057 15.6758 23.7678 16.4989 23.7678C18.1612 23.7678 19.7555 23.1074 20.9309 21.932C22.1064 20.7565 22.7667 19.1623 22.7667 17.4999C22.7667 15.8376 22.1064 14.2433 20.9309 13.0679C19.7555 11.8924 18.1612 11.2321 16.4989 11.2321ZM12.3203 17.4999C12.3203 16.9512 12.4284 16.4078 12.6384 15.9009C12.8484 15.3939 13.1562 14.9332 13.5442 14.5452C13.9322 14.1572 14.3928 13.8494 14.8998 13.6394C15.4068 13.4294 15.9501 13.3214 16.4989 13.3214C17.0476 13.3214 17.591 13.4294 18.098 13.6394C18.6049 13.8494 19.0656 14.1572 19.4536 14.5452C19.8416 14.9332 20.1494 15.3939 20.3594 15.9009C20.5694 16.4078 20.6775 16.9512 20.6775 17.4999C20.6775 18.6082 20.2372 19.671 19.4536 20.4546C18.6699 21.2383 17.6071 21.6785 16.4989 21.6785C15.3907 21.6785 14.3278 21.2383 13.5442 20.4546C12.7606 19.671 12.3203 18.6082 12.3203 17.4999ZM27.2378 29.193L24.831 28.1358C24.4884 27.9869 24.1158 27.9203 23.7429 27.9411C23.3699 27.9619 23.0071 28.0696 22.6832 28.2556C22.0327 28.6316 21.6176 29.296 21.5355 30.044L21.2457 32.6626C21.2166 32.9257 21.1068 33.1734 20.9316 33.3719C20.7563 33.5703 20.5241 33.7098 20.2666 33.7713C17.7886 34.362 15.2064 34.362 12.7284 33.7713C12.4712 33.7095 12.2392 33.5699 12.0642 33.3715C11.8892 33.1731 11.7797 32.9255 11.7506 32.6626L11.4609 30.0482C11.4193 29.6803 11.2921 29.3272 11.0894 29.0173C10.8867 28.7075 10.6142 28.4494 10.2937 28.2639C9.97359 28.0788 9.61444 27.9715 9.24523 27.9507C8.87602 27.9299 8.50709 27.9962 8.1682 28.1441L5.76135 29.2013C5.51804 29.3082 5.24752 29.3368 4.98724 29.2832C4.72696 29.2295 4.4898 29.0963 4.3086 28.9019C2.57625 27.0455 1.28715 24.8206 0.538134 22.3944C0.459376 22.1394 0.461842 21.8662 0.54519 21.6127C0.628538 21.3592 0.788646 21.1378 1.00335 20.9793L3.13024 19.4081C3.42966 19.1882 3.67312 18.9008 3.84091 18.5693C4.00871 18.2378 4.09615 17.8715 4.09615 17.4999C4.09615 17.1284 4.00871 16.7621 3.84091 16.4306C3.67312 16.0991 3.42966 15.8117 3.13024 15.5917L1.00335 14.0248C0.788369 13.8661 0.628083 13.6445 0.544722 13.3907C0.461361 13.1369 0.459059 12.8634 0.538134 12.6082C1.2887 10.1842 2.57874 7.96173 4.31138 6.10775C4.49275 5.91359 4.72999 5.78061 4.99026 5.72721C5.25053 5.6738 5.52096 5.70263 5.76413 5.80968L8.15985 6.86407C8.50073 7.01078 8.87121 7.07566 9.24166 7.05352C9.61211 7.03137 9.97223 6.92282 10.2932 6.73654C10.6142 6.55027 10.8871 6.29144 11.0901 5.98078C11.2931 5.67012 11.4206 5.31626 11.4623 4.9475L11.7548 2.33172C11.7843 2.06561 11.8961 1.81534 12.0746 1.61583C12.2531 1.41632 12.4895 1.27753 12.7507 1.21882C13.9778 0.945823 15.23 0.800966 16.517 0.785645C17.7733 0.799573 19.0241 0.945823 20.2498 1.21882C20.5114 1.27742 20.748 1.41636 20.9266 1.61618C21.1052 1.816 21.2168 2.06668 21.2457 2.33311L21.5368 4.94889C21.5996 5.52899 21.8742 6.06552 22.3081 6.45568C22.7419 6.84584 23.3045 7.06218 23.888 7.06325C24.2125 7.06325 24.5343 6.995 24.8351 6.86268L27.2308 5.80829C27.474 5.70123 27.7445 5.67241 28.0047 5.72581C28.265 5.77922 28.5022 5.9122 28.6836 6.10636C30.4158 7.96041 31.7054 10.1829 32.4555 12.6068C32.5344 12.8617 32.5321 13.1348 32.449 13.3883C32.3659 13.6418 32.2061 13.8633 31.9916 14.022L29.8675 15.5917C29.2616 16.0374 28.8953 16.7464 28.8953 17.4999C28.8953 18.2521 29.2616 18.961 29.8689 19.4081L31.9944 20.9765C32.4346 21.3024 32.6212 21.8707 32.4596 22.393C31.7096 24.8167 30.4206 27.0391 28.6892 28.8935C28.508 29.0879 28.2708 29.2211 28.0105 29.2748C27.7502 29.3284 27.4797 29.2999 27.2364 29.193H27.2378ZM19.6509 28.9172C19.9833 27.8763 20.6907 26.9961 21.6357 26.4476C22.2437 26.0973 22.9254 25.8946 23.6259 25.8556C24.3265 25.8167 25.0264 25.9426 25.6695 26.2234L27.5415 27.0452C28.7439 25.6529 29.6746 24.0475 30.2854 22.3123L28.6293 21.0907V21.0893C28.0654 20.6753 27.6067 20.1347 27.29 19.5111C26.9733 18.8874 26.8076 18.198 26.806 17.4985C26.806 16.0681 27.4983 14.7407 28.6265 13.9105L28.6293 13.9091L30.2826 12.6876C29.6714 10.9526 28.7402 9.34771 27.5373 7.95607L25.6806 8.77229L25.6778 8.77368C25.1123 9.02439 24.5036 9.15254 23.8866 9.15254C22.7893 9.15089 21.7312 8.74479 20.9145 8.01191C20.0979 7.27903 19.58 6.27082 19.4601 5.18011V5.17732L19.2331 3.14375C18.337 2.97687 17.4284 2.88694 16.517 2.87493C15.5941 2.88654 14.6738 2.97647 13.7661 3.14375L13.5391 5.17872C13.461 5.87314 13.2211 6.53957 12.8386 7.12442C12.4561 7.70926 11.9418 8.19622 11.3369 8.54615C10.732 8.89607 10.0535 9.09919 9.35584 9.1392C8.65818 9.1792 7.96087 9.05496 7.31995 8.77647L5.4591 7.95747C4.25612 9.34906 3.32491 10.954 2.71378 12.689L4.37128 13.9105C4.93393 14.3249 5.39131 14.8657 5.70653 15.4893C6.02175 16.1129 6.18599 16.8019 6.18599 17.5006C6.18599 18.1994 6.02175 18.8884 5.70653 19.512C5.39131 20.1356 4.93393 20.6764 4.37128 21.0907L2.71378 22.3136C3.32375 24.0514 4.25451 25.6592 5.45771 27.0535L7.3311 26.2317C7.96998 25.9521 8.66566 25.8266 9.36199 25.8653C10.0583 25.904 10.7358 26.1059 11.3397 26.4546C11.9434 26.8034 12.4569 27.2889 12.8389 27.8721C13.2208 28.4553 13.4607 29.12 13.5391 29.8128V29.8197L13.7647 31.8589C15.5712 32.2141 17.4279 32.2141 19.2345 31.8589L19.4601 29.8156C19.4935 29.5091 19.5576 29.2069 19.6523 28.9172H19.6509Z" fill="#8049E4"/>
</svg>
