<svg width="19" height="22" viewBox="0 0 19 22" fill="#00FF73" xmlns="http://www.w3.org/2000/svg">
<path fill-rule="evenodd" clip-rule="evenodd" d="M2.80135 2.37405C0.960378 4.38361 0.626597 4.79944 0.626597 5.08326C0.626597 5.36514 0.943965 5.76927 2.61872 7.62048C3.71436 8.83151 4.72208 9.88774 4.85818 9.96749C5.18287 10.158 5.59996 10.0349 5.80788 9.6871C5.96082 9.43124 5.95789 9.3217 5.77098 8.31394L5.56797 7.21875H8.86073C11.1114 7.21875 12.2897 7.26218 12.5837 7.35614C12.919 7.46316 13.338 7.84185 14.4803 9.07007C15.3281 9.98158 16.1094 10.7211 16.3325 10.8233C17.1375 11.1919 17.8934 10.9862 18.517 10.2287C18.9791 9.6674 19.106 9.03971 18.9132 8.26787C18.798 7.80645 18.5411 7.46889 17.0097 5.76721C15.1247 3.67285 14.5739 3.23664 13.5054 2.99166C13.1604 2.91248 11.5592 2.86458 9.25911 2.86458H5.56682L5.76607 1.80469C5.91242 1.02678 5.93698 0.675583 5.85837 0.484687C5.75948 0.244292 5.37437 0 5.09432 0C5.0293 0 3.99754 1.06826 2.80135 2.37405ZM1.20154 11.1596C0.542132 11.4762 0.00199936 12.3515 1.31923e-05 13.1065C-0.00207751 13.8798 0.242535 14.259 2.01681 16.2328C3.8997 18.3275 4.44934 18.7631 5.51874 19.0083C5.86381 19.0875 7.46497 19.1354 9.76506 19.1354H13.4573L13.2581 20.1953C13.1118 20.9732 13.0872 21.3244 13.1658 21.5153C13.2647 21.7557 13.6498 22 13.9298 22C13.9949 22 15.0266 20.9317 16.2228 19.6259C18.0638 17.6164 18.3976 17.2006 18.3976 16.9167C18.3976 16.6349 18.0802 16.2307 16.4054 14.3795C15.3098 13.1685 14.3021 12.1123 14.166 12.0325C13.8413 11.842 13.4242 11.9651 13.2163 12.3129C13.0634 12.5688 13.0663 12.6783 13.2532 13.6861L13.4562 14.7813H10.1634C7.9128 14.7813 6.73448 14.7378 6.44042 14.6439C6.10518 14.5368 5.6862 14.1581 4.54384 12.9299C3.69606 12.0184 2.91477 11.2789 2.69169 11.1767C2.22473 10.9629 1.62553 10.956 1.20154 11.1596Z" fill="#00FF73"/>
</svg>
