<svg width="23" height="18" viewBox="0 0 23 18" fill="#00FF73" xmlns="http://www.w3.org/2000/svg">
<path fill-rule="evenodd" clip-rule="evenodd" d="M1.01662 0.136042C0.867379 0.203803 0.618793 0.409428 0.464247 0.592936C-0.276927 1.47289 -0.106558 2.76653 0.823865 3.32418C1.32994 3.62746 1.69288 3.69269 2.15706 3.56392C3.35333 3.23205 3.87478 1.80635 3.18143 0.763322C2.7382 0.0965848 1.74017 -0.192641 1.01662 0.136042ZM6.56256 0.20652C5.96866 0.512991 5.69337 1.01328 5.69337 1.78611C5.69337 2.56447 5.97126 3.06588 6.56994 3.36804C6.96147 3.56561 7.00786 3.56683 14.3018 3.56683C19.2678 3.56683 21.7216 3.53459 21.8928 3.46711C22.4704 3.23964 22.996 2.4387 22.996 1.78611C22.996 1.13352 22.4704 0.332576 21.8928 0.105113C21.7216 0.0376335 19.2662 0.00539316 14.2959 0.00548688C6.96857 0.0055806 6.95113 0.00595554 6.56256 0.20652ZM1.37174 7.21345C-0.0117981 7.57278 -0.456286 9.27899 0.56467 10.3107C1.37579 11.1301 2.81184 10.874 3.30002 9.82276C3.60902 9.15724 3.50599 8.2682 3.06024 7.75432C2.69757 7.33632 1.89202 7.07821 1.37174 7.21345ZM6.56256 7.42217C5.96857 7.73005 5.69337 8.23043 5.69337 9.0027C5.69337 9.71489 5.89403 10.1186 6.4429 10.5107L6.75901 10.7366H14.3318H21.9044L22.2499 10.45C22.6667 10.1042 23 9.46053 23 9.0012C23 8.52106 22.6155 7.78122 22.2215 7.50315L21.8894 7.26884L14.4208 7.24466L6.95203 7.22039L6.56256 7.42217ZM1.31178 14.4382C0.0116669 14.8463 -0.420145 16.3624 0.464516 17.4128C0.810649 17.8238 1.19679 18 1.75123 18C3.77327 18 4.1408 15.0046 2.18709 14.4483C1.77712 14.3315 1.65593 14.3301 1.31178 14.4382ZM7.13184 14.431C6.59097 14.5301 6.21454 14.7754 5.94025 15.2076C5.7332 15.5336 5.69337 15.6969 5.69337 16.2193C5.69337 16.9315 5.89403 17.3352 6.44281 17.7273L6.75901 17.9531L14.0928 17.9812C19.2113 18.0007 21.529 17.9782 21.7653 17.9067C22.5358 17.6734 23.0773 16.8092 22.9691 15.9858C22.8917 15.397 22.5268 14.8643 22.0237 14.606L21.6065 14.3917L14.549 14.3784C10.6673 14.3711 7.32963 14.3947 7.13184 14.431Z" fill="#00FF73"/>
</svg>
