<svg width="22" height="22" viewBox="0 0 22 22" fill="#00FF73" xmlns="http://www.w3.org/2000/svg">
<path fill-rule="evenodd" clip-rule="evenodd" d="M16.4155 0.236791C16.0239 0.597573 11.6837 6.90481 11.6837 7.11319C11.6837 7.21359 11.7639 7.39785 11.8619 7.52262C12.038 7.74684 12.0532 7.74951 13.1514 7.74951H14.2628V13.6047V19.4599H16.8418H19.4209V13.6047V7.74951H20.5322C21.6305 7.74951 21.6457 7.74684 21.8218 7.52262C21.9198 7.39785 22 7.21359 22 7.11319C22 6.90481 17.6598 0.597573 17.2682 0.236791C17.1267 0.106513 16.9349 0 16.8418 0C16.7487 0 16.5569 0.106513 16.4155 0.236791ZM8.16676 10.4265C7.72556 10.6032 7.73476 10.5035 7.73184 15.1331L7.72909 19.4599H10.3512H12.9732L12.9705 15.1331C12.9675 10.4693 12.9805 10.6016 12.5092 10.4221C12.2116 10.3088 8.45123 10.3126 8.16676 10.4265ZM1.71906 14.3013C1.29497 14.4711 1.28706 14.5215 1.28414 17.0704L1.28139 19.4599H3.86047H6.43955L6.4368 17.0704C6.43387 14.498 6.42915 14.4696 5.97557 14.2969C5.6782 14.1837 2.00336 14.1875 1.71906 14.3013ZM0.202901 20.9629C-0.0502786 21.2164 -0.0673005 21.5203 0.15622 21.7967L0.320507 22H10.9959H21.6713L21.8356 21.7967C22.0591 21.5203 22.0421 21.2164 21.7889 20.9629L21.578 20.7515H10.9959H0.41387L0.202901 20.9629Z" fill="#00FF73"/>
</svg>
