<svg width="23" height="23" viewBox="0 0 23 23" fill="#00FF73" xmlns="http://www.w3.org/2000/svg">
<path fill-rule="evenodd" clip-rule="evenodd" d="M0 6.19154V12.3831H0.673828H1.34766V14.2518V16.1205L3.17845 14.2518L5.00919 12.3831H9.91673H14.8242V6.19154V0H7.41211H0V6.19154ZM8.08594 2.89558C8.81659 3.15113 9.35386 3.86884 9.42021 4.678C9.48332 5.44727 9.13841 6.12375 8.43417 6.61206C8.21387 6.76478 8.16612 6.82335 8.1208 6.99639L8.0673 7.20053H7.40281H6.73828V7.07257C6.73828 6.86765 6.86613 6.42333 6.99425 6.18301C7.115 5.95649 7.43084 5.63623 7.77899 5.38737C8.39208 4.94901 7.95692 3.97437 7.23651 4.17241C7.03203 4.22864 6.80602 4.46758 6.76146 4.67466L6.73114 4.81564H6.0609C5.28955 4.81564 5.32899 4.84715 5.45949 4.33568C5.71078 3.35063 6.61061 2.69694 7.5918 2.78656C7.72769 2.79899 7.95005 2.84806 8.08594 2.89558ZM16.1719 10.3192V13.759H12.1289H8.08594V16.5108V19.2626H13.0383H17.9908L19.8216 21.1313L21.6523 23V21.1313V19.2626H22.3262H23V13.071V6.87949H19.5859H16.1719V10.3192ZM8.08594 8.94333V9.63128H7.41211H6.73828V8.94333V8.25538H7.41211H8.08594V8.94333ZM20.3047 15.8228V16.5108H15.543H10.7812V15.8228V15.1349H15.543H20.3047V15.8228Z" fill="#00FF73"/>
</svg>
