<svg width="19" height="19" viewBox="0 0 19 19" fill="#00FF73" xmlns="http://www.w3.org/2000/svg">
<path fill-rule="evenodd" clip-rule="evenodd" d="M1.8957 0.154628C1.03535 0.450774 0.445756 1.04485 0.155187 1.90833C0.015949 2.3221 0 2.54147 0 4.04261V5.71582H9.49996H19L18.9766 3.91504C18.9547 2.22074 18.9433 2.09227 18.7829 1.74296C18.3915 0.889794 17.8477 0.385574 17.0516 0.137549C16.6258 0.00484752 16.2481 -0.00198433 9.47007 0.000317702C2.48189 0.00276825 2.32774 0.00596139 1.8957 0.154628ZM15.6449 2.03621C16.084 2.26351 16.2413 2.84541 15.9934 3.32535C15.7678 3.76191 15.6035 3.79578 13.8319 3.7706L12.2424 3.74795L12.0001 3.5052C11.7846 3.28926 11.7577 3.2167 11.7577 2.84972C11.7577 2.46795 11.7785 2.4179 12.0348 2.18279L12.312 1.92861H13.8745C15.0939 1.92861 15.4828 1.95222 15.6449 2.03621ZM0 12.1045C0 16.5065 0.00445088 16.6498 0.155187 17.0977C0.428842 17.911 0.894405 18.4102 1.74326 18.8005L2.11417 18.9711L9.34144 18.9911C17.3748 19.0133 16.9952 19.0347 17.7759 18.5159C18.2251 18.2175 18.4774 17.9084 18.7539 17.3177L18.9533 16.8918L18.974 12.2321L18.9947 7.5723H9.49737H0V12.1045ZM10.0145 10.0105C10.4413 10.3197 10.4594 10.4408 10.4594 12.9932C10.4594 15.0736 10.445 15.3605 10.3296 15.587C10.1478 15.944 9.86241 16.1324 9.50345 16.1324C9.14864 16.1324 8.87513 15.9709 8.67596 15.644C8.54058 15.4216 8.53138 15.2545 8.53115 13.0044C8.53078 10.2692 8.53946 10.2209 9.0749 9.9503C9.42126 9.77527 9.71598 9.79413 10.0145 10.0105ZM6.14971 11.8384C6.58849 12.0656 6.63678 12.2364 6.66408 13.6569C6.67781 14.3691 6.66712 15.098 6.64035 15.2768C6.51513 16.1125 5.58393 16.4174 5.00442 15.8123L4.7847 15.5829L4.762 14.0325C4.74286 12.7239 4.75792 12.4461 4.85836 12.2517C5.09411 11.7953 5.69498 11.603 6.14971 11.8384ZM13.7756 11.8764C14.2209 12.1481 14.2537 12.3039 14.2284 14.0325L14.2057 15.5829L13.986 15.8123C13.4065 16.4174 12.4753 16.1125 12.3501 15.2768C12.3233 15.098 12.3126 14.3691 12.3263 13.6569C12.3479 12.5348 12.37 12.3343 12.4916 12.1546C12.7783 11.7313 13.339 11.6098 13.7756 11.8764Z" fill="#00FF73"/>
</svg>
