<svg width="115" height="115" viewBox="0 0 115 115" fill="none" xmlns="http://www.w3.org/2000/svg">
<rect y="0.707107" width="80.2424" height="80.2424" rx="40.1212" transform="matrix(-0.707107 0.707107 0.707107 0.707107 56.9453 0.207107)" fill="black" stroke="#00FF73"/>
<g clip-path="url(#clip0_427_9455)">
<path d="M59.3062 57C59.3062 62.5913 54.7613 67.125 49.152 67.125C47.8206 67.1268 46.5019 66.8663 45.2711 66.3584C44.0404 65.8506 42.9217 65.1053 41.979 64.1651C41.0363 63.2249 40.2881 62.1082 39.7769 60.8788C39.2658 59.6494 39.0018 58.3314 39 57C39 51.4065 43.545 46.875 49.152 46.875C50.4836 46.8729 51.8026 47.1332 53.0336 47.6409C54.2646 48.1487 55.3835 48.8939 56.3264 49.8342C57.2694 50.7744 58.0178 51.8912 58.5291 53.1207C59.0404 54.3502 59.3045 55.6684 59.3062 57V57ZM70.4438 57C70.4438 62.265 68.1712 66.531 65.3677 66.531C62.5642 66.531 60.2918 62.2628 60.2918 57C60.2918 51.735 62.5642 47.469 65.3677 47.469C68.1712 47.469 70.4438 51.7373 70.4438 57ZM75 57C75 61.716 74.2013 65.5388 73.2135 65.5388C72.228 65.5388 71.4293 61.7138 71.4293 57C71.4293 52.284 72.228 48.4613 73.2157 48.4613C74.2012 48.4613 75 52.284 75 57Z" fill="#00FF73"/>
</g>
<defs>
<clipPath id="clip0_427_9455">
<rect width="36" height="36" fill="white" transform="translate(39 39)"/>
</clipPath>
</defs>
</svg>
