<svg width="115" height="115" viewBox="0 0 115 115" fill="none" xmlns="http://www.w3.org/2000/svg">
<rect y="0.707107" width="80.2424" height="80.2424" rx="40.1212" transform="matrix(-0.707107 0.707107 0.707107 0.707107 56.9453 0.207107)" fill="black" stroke="#00FF73"/>
<path d="M74.4652 46.4054C73.2127 46.9604 71.8673 47.3354 70.4528 47.5049C71.9123 46.6316 73.0042 45.2571 73.5247 43.6379C72.1535 44.4524 70.6528 45.0257 69.0877 45.3329C68.0353 44.2092 66.6413 43.4644 65.1222 43.2141C63.6031 42.9638 62.0439 43.2221 60.6866 43.9488C59.3293 44.6754 58.2499 45.8299 57.616 47.2329C56.982 48.6359 56.8291 50.209 57.1807 51.7079C54.4023 51.5684 51.6842 50.8462 49.2029 49.5882C46.7216 48.3303 44.5325 46.5646 42.7777 44.4059C42.1777 45.4409 41.8328 46.6409 41.8328 47.9189C41.8321 49.0694 42.1154 50.2022 42.6576 51.217C43.1997 52.2317 43.984 53.0969 44.9408 53.7359C43.8312 53.7006 42.7461 53.4007 41.7758 52.8614V52.9514C41.7756 54.565 42.3338 56.1289 43.3555 57.3779C44.3772 58.6268 45.7996 59.4838 47.3813 59.8034C46.3519 60.0819 45.2728 60.123 44.2253 59.9234C44.6715 61.3118 45.5407 62.5259 46.7113 63.3958C47.8819 64.2656 49.2951 64.7476 50.7533 64.7744C48.278 66.7175 45.2211 67.7715 42.0742 67.7669C41.5168 67.767 40.9599 67.7345 40.4062 67.6694C43.6005 69.7231 47.3188 70.8131 51.1163 70.8089C63.9712 70.8089 70.9988 60.1619 70.9988 50.9279C70.9988 50.6279 70.9913 50.3249 70.9778 50.0249C72.3447 49.0363 73.5246 47.8122 74.4622 46.4099L74.4652 46.4054Z" fill="#00FF73"/>
</svg>
