<svg width="115" height="115" viewBox="0 0 115 115" fill="none" xmlns="http://www.w3.org/2000/svg">
<rect y="0.707107" width="80.2424" height="80.2424" rx="40.1212" transform="matrix(-0.707107 0.707107 0.707107 0.707107 56.9453 0.207107)" fill="black" stroke="#00FF73"/>
<path d="M69.9969 44.5757L43.4019 54.8312C41.5869 55.5602 41.5974 56.5727 43.0689 57.0242L49.8969 59.1542L65.6949 49.1867C66.4419 48.7322 67.1244 48.9767 66.5634 49.4747L53.7639 61.0262H53.7609L53.7639 61.0277L53.2929 68.0657C53.9829 68.0657 54.2874 67.7492 54.6744 67.3757L57.9909 64.1507L64.8894 69.2462C66.1614 69.9467 67.0749 69.5867 67.3914 68.0687L71.9199 46.7267C72.3834 44.8682 71.2104 44.0267 69.9969 44.5757V44.5757Z" fill="#00FF73"/>
</svg>
