<svg width="86" height="85" viewBox="0 0 86 85" fill="none" xmlns="http://www.w3.org/2000/svg">
<rect x="43.3555" y="0.759841" width="59" height="59" rx="29.5" transform="rotate(45 43.3555 0.759841)" fill="#191D25" stroke="#00FF73"/>
<path d="M57.355 34.98C56.3269 35.4348 55.2225 35.742 54.0614 35.8809C55.2594 35.1654 56.1557 34.0392 56.583 32.7125C55.4575 33.3798 54.2256 33.8496 52.941 34.1013C52.0771 33.1806 50.9329 32.5703 49.686 32.3653C48.4391 32.1602 47.1592 32.3718 46.0451 32.9672C44.931 33.5626 44.045 34.5085 43.5246 35.6581C43.0043 36.8077 42.8787 38.0965 43.1674 39.3247C40.8868 39.2104 38.6557 38.6186 36.619 37.5879C34.5822 36.5572 32.7854 35.1105 31.345 33.3417C30.8525 34.1898 30.5693 35.173 30.5693 36.2201C30.5688 37.1628 30.8014 38.091 31.2464 38.9224C31.6914 39.7539 32.3351 40.4628 33.1205 40.9863C32.2097 40.9574 31.319 40.7117 30.5226 40.2698V40.3435C30.5225 41.6656 30.9806 42.9471 31.8193 43.9704C32.6579 44.9937 33.8255 45.6958 35.1237 45.9577C34.2788 46.186 33.393 46.2196 32.5332 46.056C32.8995 47.1936 33.613 48.1884 34.5738 48.9011C35.5346 49.6139 36.6947 50.0088 37.8915 50.0307C35.8598 51.6228 33.3506 52.4864 30.7676 52.4826C30.31 52.4828 29.8529 52.4561 29.3984 52.4027C32.0203 54.0855 35.0724 54.9786 38.1895 54.9751C48.7412 54.9751 54.5096 46.2515 54.5096 38.6856C54.5096 38.4398 54.5034 38.1915 54.4923 37.9457C55.6144 37.1357 56.5829 36.1327 57.3525 34.9837L57.355 34.98V34.98Z" fill="#00FF73"/>
</svg>
