<svg width="21" height="17" viewBox="0 0 21 17" fill="#00FF73" xmlns="http://www.w3.org/2000/svg">
<path d="M20.6881 2.32013C19.9574 2.64388 19.1726 2.86263 18.3474 2.9615C19.1988 2.45207 19.8358 1.65028 20.1394 0.70575C19.3396 1.18087 18.4641 1.5153 17.5512 1.6945C16.9373 1.03901 16.1241 0.604536 15.238 0.45854C14.3518 0.312545 13.4423 0.463193 12.6505 0.887097C11.8588 1.311 11.2291 1.98444 10.8593 2.80287C10.4895 3.62129 10.4003 4.53891 10.6054 5.41325C8.98466 5.33187 7.39911 4.91061 5.95168 4.17679C4.50426 3.44298 3.2273 2.41302 2.20369 1.15375C1.85369 1.7575 1.65244 2.4575 1.65244 3.203C1.65205 3.87412 1.81732 4.53496 2.13358 5.12689C2.44985 5.71882 2.90733 6.22353 3.46544 6.59625C2.81818 6.57566 2.1852 6.40076 1.61919 6.08613V6.13863C1.61912 7.0799 1.94472 7.99221 2.54072 8.72075C3.13673 9.44929 3.96644 9.94919 4.88906 10.1356C4.28862 10.2981 3.65911 10.3221 3.04806 10.2056C3.30837 11.0155 3.81543 11.7238 4.49826 12.2312C5.18108 12.7386 6.00549 13.0198 6.85606 13.0354C5.41217 14.1689 3.62896 14.7837 1.79331 14.781C1.46815 14.7811 1.14325 14.7621 0.820312 14.7241C2.6836 15.9222 4.85261 16.558 7.06781 16.5555C14.5666 16.5555 18.6659 10.3448 18.6659 4.95825C18.6659 4.78325 18.6616 4.6065 18.6537 4.4315C19.4511 3.85485 20.1394 3.14078 20.6863 2.32275L20.6881 2.32013Z" fill="#00FF73"/>
</svg>
