<svg width="22" height="20" viewBox="0 0 22 20" fill="none" xmlns="http://www.w3.org/2000/svg">
<path fill-rule="evenodd" clip-rule="evenodd" d="M5.84375 3.75V7.5H11H16.1562V3.75V0H11H5.84375V3.75ZM12.9534 2.519L13.4083 2.95458L11.9258 4.394C11.1103 5.18558 10.4034 5.83333 10.3548 5.83333C10.3061 5.83333 9.88969 5.46675 9.42932 5.01867L8.59238 4.204L9.06555 3.75083L9.5388 3.29767L9.94924 3.68975L10.3598 4.08175L11.3875 3.08258C11.9528 2.533 12.434 2.08333 12.4569 2.08333C12.4798 2.08333 12.7032 2.27933 12.9534 2.519ZM1.55538 7.5L0.246039 10H11.0004H21.7548L20.4432 7.5L19.1315 5H18.2884H17.4453V6.25V7.5H18.0898H18.7344V8.125V8.75H11H3.26562V8.125V7.5H3.91016H4.55469V6.25V5H3.70975H2.86481L1.55538 7.5ZM0 15.625V20H11H22V15.625V11.25H11H0V15.625ZM15.4688 15.625V18.0833H11H6.53125V15.625V13.1667H11H15.4688V15.625ZM7.77253 14.4405C7.74873 14.5006 7.74013 15.0729 7.75328 15.7123L7.77734 16.875H11H14.2227V15.625V14.375L11.0192 14.3532C8.44095 14.3356 7.80725 14.3526 7.77253 14.4405Z" fill="#00FF73"/>
</svg>
